<?xml version="1.0" encoding="UTF-8"?>
<svg width="78px" height="78px" viewBox="0 0 78 78" version="1.1" xmlns="http://www.w3.org/2000/svg" xmlns:xlink="http://www.w3.org/1999/xlink">
    <!-- Generator: Sketch 51.3 (57544) - http://www.bohemiancoding.com/sketch -->
    <title>Group 2</title>
    <desc>Created with Sketch.</desc>
    <defs></defs>
    <g id="Page-1" stroke="none" stroke-width="1" fill="none" fill-rule="evenodd">
        <g id="Artboard" transform="translate(-785.000000, -127.000000)">
            <g id="Group-2" transform="translate(785.000000, 127.000000)">
                <circle id="Oval-2" fill="#00C0A3" cx="38.9863281" cy="38.9042969" r="38.8027344"></circle>
                <g id="Group" transform="translate(16.486328, 13.404297)" fill="#FFFFFF" fill-rule="nonzero">
                    <path d="M36.6078264,25.8336166 C36.1180896,25.3438798 35.3834844,25.3438798 34.8937476,25.8336166 L31.2207215,29.5066427 L29.3229914,27.6089126 L36.6078264,20.3240775 C39.362596,17.569308 39.362596,13.1616767 36.6078264,10.4069072 C35.2610502,9.06013095 33.5469714,8.38674284 31.6492412,8.38674284 C29.7515111,8.38674284 28.0374323,9.12134805 26.690656,10.4069072 L19.405821,17.6917422 L17.3856567,15.6715779 L21.0586828,11.9985518 C21.3035512,11.7536834 21.4259854,11.4475979 21.4259854,11.1415124 C21.4259854,10.8354269 21.3035512,10.5293414 21.0586828,10.284473 L16.2837489,5.50953909 C16.2837489,5.50953909 16.2837489,5.50953909 16.2837489,5.50953909 C16.2837489,5.50953909 16.2837489,5.50953909 16.2837489,5.50953909 L11.508815,0.734605212 C11.0190782,0.244868404 10.2232559,0.244868404 9.79473616,0.734605212 L0.673388111,9.73351906 C0.183651303,10.2232559 0.183651303,10.9578611 0.673388111,11.4475979 L5.44832199,16.2225318 C5.44832199,16.2225318 5.44832199,16.2225318 5.44832199,16.2225318 C5.44832199,16.2225318 5.44832199,16.2225318 5.44832199,16.2225318 L10.2232559,20.9974656 C10.4681243,21.2423341 10.7742098,21.3647683 11.0802953,21.3647683 C11.3863808,21.3647683 11.6924663,21.2423341 11.9373347,20.9974656 L15.6103608,17.3244396 L17.6305251,19.3446039 L12.6107228,24.3644062 C12.120986,24.854143 12.120986,25.5887482 12.6107228,26.078485 L15.9164463,29.3842085 L14.6308871,30.6697676 C13.1004596,29.5066427 11.2027295,28.7720375 9.18256515,28.6496033 C6.85631531,28.5271691 4.71371678,29.2005572 3.36694056,30.6085505 C2.87720375,31.0982873 2.87720375,31.8328925 3.36694056,32.3226293 L8.14187444,37.0975632 L7.65213763,37.5873 C7.16240082,38.0770368 7.16240082,38.811642 7.65213763,39.3013789 C7.89700603,39.5462473 8.20309154,39.6686815 8.50917704,39.6686815 C8.81526255,39.6686815 9.12134805,39.5462473 9.36621646,39.3013789 L9.85595326,38.811642 L14.6308871,43.5865759 C14.8757555,43.8314443 15.1818411,43.9538785 15.4879266,43.9538785 C15.7940121,43.9538785 16.1000976,43.8314443 16.344966,43.5865759 C18.79365,41.1378919 19.1609526,36.0568725 16.2837489,32.3226293 L17.569308,31.0370702 L20.8138143,34.2815766 C21.0586828,34.526445 21.3647683,34.6488792 21.6708538,34.6488792 C21.9769393,34.6488792 22.2830248,34.526445 22.5278932,34.2815766 L27.5476955,29.2617743 L29.4454256,31.1595044 L25.7723995,34.8325305 C25.2826627,35.3222673 25.2826627,36.0568725 25.7723995,36.5466093 L35.3222673,46.0964771 C35.5671357,46.3413455 35.8732212,46.4637797 36.1793067,46.4637797 C36.4853922,46.4637797 36.7914777,46.3413455 37.0363461,46.0964771 L41.5664116,41.5664116 C41.5664116,41.5664116 41.5664116,41.5664116 41.5664116,41.5664116 C41.5664116,41.5664116 41.5664116,41.5664116 41.5664116,41.5664116 L46.0964771,37.0363461 C46.5862139,36.5466093 46.5862139,35.8120041 46.0964771,35.3222673 L36.6078264,25.8336166 Z M15.6715779,13.8962819 L12.6107228,10.8354269 L15.4267095,8.01944023 L18.4875645,11.0802953 L15.6715779,13.8962819 Z M10.6517756,3.24450635 L13.7126306,6.3053614 L10.896644,9.12134805 L7.83578893,6.060493 L10.6517756,3.24450635 Z M6.060493,7.83578893 L9.12134805,10.896644 L6.3053614,13.7126306 L3.24450635,10.6517756 L6.060493,7.83578893 Z M11.0802953,18.4875645 L8.01944023,15.4267095 L10.8354269,12.6107228 L13.8962819,15.6715779 L11.0802953,18.4875645 Z M15.3654924,40.8930235 L6.1217101,31.6492412 C6.91753242,31.2819386 7.95822313,31.0370702 9.06013095,31.0982873 C10.896644,31.2207215 12.5495057,31.9553267 13.8350648,33.1796688 C16.0388805,35.4447015 16.4061831,38.811642 15.3654924,40.8930235 Z M21.7320709,31.7104583 L18.4875645,28.465952 C18.4875645,28.465952 18.4875645,28.465952 18.4875645,28.465952 C18.4875645,28.465952 18.4875645,28.465952 18.4875645,28.465952 L15.3042753,25.2826627 L27.5476955,12.9780254 L30.7922018,16.2225318 C31.0370702,16.4674002 31.3431557,16.5898344 31.6492412,16.5898344 C31.9553267,16.5898344 32.2614122,16.4674002 32.5062806,16.2225318 C32.9960174,15.732795 32.9960174,14.9981897 32.5062806,14.5084529 L29.3842085,11.3863808 C30.0575966,11.0190782 30.8534189,10.7742098 31.6492412,10.7742098 C32.8735832,10.7742098 34.0367082,11.2639466 34.8937476,12.120986 C36.6690435,13.8962819 36.6690435,16.7734857 34.8937476,18.5487816 L21.7320709,31.7104583 Z M35.750787,28.4047349 L38.811642,31.4655899 L35.9956554,34.2815766 L32.9348003,31.2207215 L35.750787,28.4047349 Z M31.2207215,32.9348003 L34.2815766,35.9956554 L31.4655899,38.811642 L28.4047349,35.750787 L31.2207215,32.9348003 Z M36.2405238,43.5865759 L33.1796688,40.5257209 L35.9956554,37.7097342 L39.0565104,40.7705893 L36.2405238,43.5865759 Z M40.7705893,39.0565104 L37.7097342,35.9956554 L40.5257209,33.1796688 L43.5865759,36.2405238 L40.7705893,39.0565104 Z" id="Shape"></path>
                    <path d="M4.89736808,40.4032867 L4.16276287,41.1378919 C3.67302606,41.6276287 3.67302606,42.3622339 4.16276287,42.8519707 C4.40763127,43.0968391 4.71371678,43.2192733 5.01980228,43.2192733 C5.32588779,43.2192733 5.63197329,43.0968391 5.8768417,42.8519707 L6.61144691,42.1173655 C7.10118372,41.6276287 7.10118372,40.8930235 6.61144691,40.4032867 C6.1217101,39.9135499 5.38710489,39.9135499 4.89736808,40.4032867 Z" id="Shape"></path>
                    <path d="M1.40799332,43.8314443 L1.10190782,44.1375298 C0.61217101,44.6272666 0.61217101,45.3618719 1.10190782,45.8516087 C1.34677622,46.0964771 1.65286173,46.2189113 1.95894723,46.2189113 C2.26503274,46.2189113 2.57111824,46.0964771 2.81598665,45.8516087 L3.12207215,45.5455232 C3.61180896,45.0557863 3.61180896,44.3211811 3.12207215,43.8314443 C2.63233534,43.3417075 1.89773013,43.4029246 1.40799332,43.8314443 Z" id="Shape"></path>
                </g>
            </g>
        </g>
    </g>
</svg>