<svg width="67" height="23" viewBox="0 0 67 23" xmlns="http://www.w3.org/2000/svg"><title>Group 4</title><desc>Created with Sketch.</desc><g fill="none"><path d="M16.961 17h-1.924v-9.043h-4.717v9.043h-1.924v-10.566h8.564v10.566zm19.238 0c-.065-.319-.116-.601-.151-.845-.036-.244-.057-.49-.063-.737-.358.508-.825.933-1.401 1.274-.576.342-1.196.513-1.86.513-1.1 0-1.938-.282-2.515-.845-.576-.563-.864-1.34-.864-2.329 0-1.009.409-1.798 1.226-2.368.817-.57 1.925-.854 3.325-.854h2.09v-1.045c0-.618-.189-1.108-.566-1.47-.378-.361-.911-.542-1.602-.542-.625 0-1.13.156-1.514.469-.384.313-.576.687-.576 1.123l-1.826.02-.02-.059c-.046-.768.314-1.471 1.079-2.109.765-.638 1.753-.957 2.964-.957 1.198 0 2.161.304 2.891.913.729.609 1.094 1.486 1.094 2.632v5.088c0 .378.02.742.059 1.094.039.352.111.697.215 1.035h-1.982zm-3.193-1.406c.697 0 1.325-.179 1.885-.537.56-.358.924-.768 1.094-1.23v-1.719h-2.158c-.775 0-1.395.195-1.86.586-.465.391-.698.85-.698 1.377 0 .469.146.84.439 1.113.293.273.726.41 1.299.41zm16.26 1.406h-1.924v-9.043h-4.717v9.043h-1.924v-10.566h8.564v10.566zm4.883 0h-1.924v-10.566h1.924v10.566zm0-13.271h-1.924v-1.963h1.924v1.963zm11.963 8.389c0 1.523-.365 2.752-1.094 3.687-.729.934-1.735 1.401-3.018 1.401-.651 0-1.222-.109-1.714-.327-.492-.218-.91-.545-1.255-.981v5.166h-1.924v-14.629h1.475l.303 1.367c.345-.508.775-.895 1.289-1.162.514-.267 1.113-.4 1.797-.4 1.309 0 2.326.519 3.052 1.558.726 1.038 1.089 2.41 1.089 4.116v.205zm-1.924-.205c0-1.198-.236-2.183-.708-2.954-.472-.771-1.167-1.157-2.085-1.157-.553 0-1.025.125-1.416.376s-.706.594-.947 1.03v5.107c.241.436.557.776.947 1.021.391.244.869.366 1.436.366.911 0 1.602-.334 2.07-1.001.469-.667.703-1.528.703-2.583v-.205z" fill="#4A4A4A"/><path stroke="#4A4A4A" stroke-width="2" d="M1 1h23v21h-23z"/></g></svg>